<mxfile host="app.diagrams.net" modified="2022-04-10T08:46:09.320Z" agent="5.0 (Windows NT 10.0; Win64; x64) AppleWebKit/537.36 (KHTML, like Gecko) Chrome/100.0.4896.75 Safari/537.36" etag="vYsIwKizujsLBbkT_vBM" version="17.4.2" type="github">
  <diagram id="cZql5SpX02E3uWYnG992" name="第 1 页">
    <mxGraphModel dx="1038" dy="947" grid="0" gridSize="10" guides="1" tooltips="1" connect="1" arrows="1" fold="1" page="0" pageScale="1" pageWidth="827" pageHeight="1169" background="none" math="0" shadow="0">
      <root>
        <mxCell id="0" />
        <mxCell id="1" parent="0" />
        <mxCell id="NuiN4NehknKi0BaMpxLo-14" style="edgeStyle=orthogonalEdgeStyle;rounded=0;orthogonalLoop=1;jettySize=auto;html=1;exitX=0.5;exitY=1;exitDx=0;exitDy=0;exitPerimeter=0;entryX=0.5;entryY=0;entryDx=0;entryDy=0;fontFamily=Times New Roman;fontSize=12;" edge="1" parent="1" source="NuiN4NehknKi0BaMpxLo-1" target="NuiN4NehknKi0BaMpxLo-2">
          <mxGeometry relative="1" as="geometry" />
        </mxCell>
        <mxCell id="NuiN4NehknKi0BaMpxLo-1" value="开始" style="strokeWidth=1;html=1;shape=mxgraph.flowchart.terminator;whiteSpace=wrap;fillColor=#f5f5f5;fontColor=#333333;strokeColor=#666666;shadow=1;" vertex="1" parent="1">
          <mxGeometry x="320" y="-7" width="98" height="47" as="geometry" />
        </mxCell>
        <mxCell id="NuiN4NehknKi0BaMpxLo-17" style="edgeStyle=orthogonalEdgeStyle;rounded=0;orthogonalLoop=1;jettySize=auto;html=1;exitX=0.5;exitY=1;exitDx=0;exitDy=0;fontFamily=Times New Roman;fontSize=12;" edge="1" parent="1" source="NuiN4NehknKi0BaMpxLo-2">
          <mxGeometry relative="1" as="geometry">
            <mxPoint x="369" y="116.60002136230469" as="targetPoint" />
          </mxGeometry>
        </mxCell>
        <mxCell id="NuiN4NehknKi0BaMpxLo-2" value="&lt;font face=&quot;pingfang sc, microsoft yahei, helvetica neue, helvetica, arial, sans-serif&quot;&gt;初始化COM环境接口&lt;/font&gt;" style="rounded=0;whiteSpace=wrap;html=1;shadow=1;strokeWidth=1;fillColor=#f5f5f5;fontColor=#333333;strokeColor=#666666;" vertex="1" parent="1">
          <mxGeometry x="304" y="55" width="130" height="42" as="geometry" />
        </mxCell>
        <mxCell id="NuiN4NehknKi0BaMpxLo-3" value="&lt;font face=&quot;pingfang sc, microsoft yahei, helvetica neue, helvetica, arial, sans-serif&quot;&gt;创建&lt;/font&gt;&lt;font face=&quot;Times New Roman&quot;&gt;任务服务对象ITaskService,并将其链接到任务服务上&lt;/font&gt;" style="rounded=0;whiteSpace=wrap;html=1;shadow=1;strokeWidth=1;fillColor=#f5f5f5;fontColor=#333333;strokeColor=#666666;" vertex="1" parent="1">
          <mxGeometry x="267" y="113" width="221" height="39" as="geometry" />
        </mxCell>
        <mxCell id="NuiN4NehknKi0BaMpxLo-4" value="&lt;font face=&quot;pingfang sc, microsoft yahei, helvetica neue, helvetica, arial, sans-serif&quot;&gt;从ITaskService对象中获取根任务的指针&lt;/font&gt;" style="rounded=0;whiteSpace=wrap;html=1;shadow=1;strokeWidth=1;fillColor=#f5f5f5;fontColor=#333333;strokeColor=#666666;" vertex="1" parent="1">
          <mxGeometry x="267" y="173" width="222" height="39" as="geometry" />
        </mxCell>
        <mxCell id="NuiN4NehknKi0BaMpxLo-6" value="&lt;font face=&quot;pingfang sc, microsoft yahei, helvetica neue, helvetica, arial, sans-serif&quot;&gt;创建任务定义对象来创建任务&lt;/font&gt;" style="rounded=0;whiteSpace=wrap;html=1;shadow=1;strokeWidth=1;fillColor=#f5f5f5;fontColor=#333333;strokeColor=#666666;" vertex="1" parent="1">
          <mxGeometry x="264" y="249" width="225" height="43" as="geometry" />
        </mxCell>
        <mxCell id="NuiN4NehknKi0BaMpxLo-7" value="&lt;font face=&quot;pingfang sc, microsoft yahei, helvetica neue, helvetica, arial, sans-serif&quot;&gt;对任务定义对象ITaskDefinition进行设置&lt;/font&gt;" style="rounded=0;whiteSpace=wrap;html=1;shadow=1;strokeWidth=1;fillColor=#f5f5f5;fontColor=#333333;strokeColor=#666666;" vertex="1" parent="1">
          <mxGeometry x="264" y="313" width="227" height="47" as="geometry" />
        </mxCell>
        <mxCell id="NuiN4NehknKi0BaMpxLo-9" value="&lt;font face=&quot;pingfang sc, microsoft yahei, helvetica neue, helvetica, arial, sans-serif&quot;&gt;完成计划任务自启&lt;/font&gt;" style="rounded=0;whiteSpace=wrap;html=1;shadow=1;strokeWidth=1;fillColor=#f5f5f5;fontColor=#333333;strokeColor=#666666;" vertex="1" parent="1">
          <mxGeometry x="311" y="443" width="130" height="42" as="geometry" />
        </mxCell>
        <mxCell id="NuiN4NehknKi0BaMpxLo-10" value="开始" style="strokeWidth=1;html=1;shape=mxgraph.flowchart.terminator;whiteSpace=wrap;fillColor=#f5f5f5;fontColor=#333333;strokeColor=#666666;shadow=1;" vertex="1" parent="1">
          <mxGeometry x="327.25" y="498" width="98" height="47" as="geometry" />
        </mxCell>
        <mxCell id="NuiN4NehknKi0BaMpxLo-8" value="&lt;font face=&quot;pingfang sc, microsoft yahei, helvetica neue, helvetica, arial, sans-serif&quot;&gt;使用根任务的指针对象对定义对象ITaskDefinition进行设置，并注册服务&lt;/font&gt;" style="rounded=0;whiteSpace=wrap;html=1;shadow=1;strokeWidth=1;fillColor=#f5f5f5;fontColor=#333333;strokeColor=#666666;" vertex="1" parent="1">
          <mxGeometry x="262.5" y="382" width="227.5" height="48" as="geometry" />
        </mxCell>
      </root>
    </mxGraphModel>
  </diagram>
</mxfile>
